<?xml version="1.0" standalone="no"?> <!DOCTYPE svg PUBLIC "-//W3C//DTD SVG 20010904//EN" "http://www.w3.org/TR/2001/REC-SVG-20010904/DTD/svg10.dtd"> <svg version="1.0" xmlns="http://www.w3.org/2000/svg" width="600.000000pt" height="267.000000pt" viewBox="0 0 600.000000 267.000000" preserveAspectRatio="xMidYMid meet"> <g transform="translate(0.000000,267.000000) scale(0.100000,-0.100000)" fill="#06cb13" stroke="none"> <path d="M2911 2346 l-100 -101 100 -102 100 -101 100 98 c54 54 99 100 99 103 0 3 -45 50 -99 105 l-99 99 -101 -101z m109 54 c0 -5 -8 -10 -17 -10 -15 0 -16 2 -3 10 19 12 20 12 20 0z m35 -30 l20 -25 -22 19 c-13 11 -23 24 -23 29 0 6 1 8 3 6 1 -2 11 -15 22 -29z m23 -62 c34 -33 62 -62 62 -63 0 -8 -124 -125 -130 -123 -5 2 -36 30 -70 62 l-62 59 63 63 c35 35 66 64 70 64 3 0 34 -28 67 -62z m63 -25 c13 -16 12 -17 -3 -4 -17 13 -22 21 -14 21 2 0 10 -8 17 -17z m-265 -25 c-9 -14 -13 -28 -9 -33 5 -4 2 -5 -4 -1 -18 10 -16 26 5 46 23 23 27 17 8 -12z m298 -7 c3 -4 -3 -16 -14 -26 -19 -17 -19 -17 -7 9 14 29 14 29 21 17z m-243 -88 c13 -16 12 -17 -3 -4 -17 13 -22 21 -14 21 2 0 10 -8 17 -17z m159 -13 c0 -5 -5 -10 -11 -10 -5 0 -7 5 -4 10 3 6 8 10 11 10 2 0 4 -4 4 -10z m-75 -69 c-6 -5 -25 10 -25 20 0 5 6 4 14 -3 8 -7 12 -15 11 -17z"/> <path d="M2650 2161 c-8 -4 -67 -20 -131 -36 l-116 -28 19 -66 c10 -36 25 -93 34 -127 8 -33 19 -65 23 -72 5 -8 45 -1 142 25 l135 35 -22 83 c-54 204 -54 202 -84 186z m20 -36 c0 -8 -2 -15 -4 -15 -2 0 -6 7 -10 15 -3 8 -1 15 4 15 6 0 10 -7 10 -15z m-80 -9 c0 -2 -9 -6 -20 -9 -11 -3 -18 -1 -14 4 5 9 34 13 34 5z m64 -41 c4 -19 15 -59 25 -90 l18 -55 -41 -11 c-22 -6 -63 -17 -90 -25 -27 -8 -50 -13 -51 -11 -1 1 -10 34 -20 72 -10 39 -22 77 -26 86 -7 13 7 20 79 41 48 14 90 26 93 27 4 0 10 -15 13 -34z m-168 9 c-22 -8 -45 -13 -50 -10 -6 2 5 8 24 14 52 15 71 13 26 -4z m-19 -116 c-3 -8 -6 -5 -6 6 -1 11 2 17 5 13 3 -3 4 -12 1 -19z m256 -48 c-3 -11 -12 -20 -21 -20 -13 0 -13 2 1 18 13 15 14 21 4 32 -10 12 -9 12 4 2 10 -8 15 -21 12 -32z m-204 -68 c-12 -5 -39 17 -39 30 0 5 11 1 24 -9 13 -10 20 -20 15 -21z"/> <path d="M3332 2127 c-42 -151 -63 -230 -60 -232 4 -3 263 -75 271 -75 3 0 8 15 12 33 4 17 20 79 36 136 16 58 29 105 29 107 0 1 -10 4 -22 7 -31 7 -217 55 -237 62 -13 4 -20 -6 -29 -38z m63 -5 c-11 -2 -25 -8 -31 -13 -15 -12 -25 1 -11 15 6 7 22 10 36 7 22 -4 23 -6 6 -9z m161 -64 c2 -2 -6 -35 -17 -72 -13 -44 -18 -81 -14 -102 5 -28 3 -34 -12 -34 -15 0 -16 2 -3 10 21 13 13 17 -80 41 -47 12 -88 25 -93 29 -4 3 -1 26 7 51 7 24 19 63 25 85 l11 41 86 -23 c47 -12 87 -24 90 -26z m31 16 c-3 -3 -12 -4 -19 -1 -8 3 -5 6 6 6 11 1 17 -2 13 -5z"/> <path d="M2476 1659 c-3 -8 -18 -63 -34 -124 -16 -60 -33 -117 -36 -126 -6 -13 6 -19 66 -33 40 -10 102 -26 137 -37 36 -11 68 -16 71 -12 4 5 15 42 25 83 10 41 26 99 37 129 10 30 17 55 16 57 -2 1 -59 17 -128 34 -69 18 -130 35 -137 37 -7 3 -15 -1 -17 -8z m34 -29 c0 -5 -5 -10 -11 -10 -5 0 -7 5 -4 10 3 6 8 10 11 10 2 0 4 -4 4 -10z m-23 -42 c-3 -8 -6 -5 -6 6 -1 11 2 17 5 13 3 -3 4 -12 1 -19z m81 7 c26 -8 66 -19 88 -25 l41 -10 -14 -48 c-8 -26 -21 -65 -27 -87 -7 -22 -17 -39 -22 -38 -5 1 -43 10 -84 20 -41 9 -77 18 -79 19 -4 4 42 184 47 184 2 0 24 -7 50 -15z m156 -22 c3 -8 1 -22 -5 -31 -7 -12 -9 -13 -6 -2 3 8 -4 25 -15 37 -20 22 -20 22 0 16 11 -3 23 -12 26 -20z m-257 -75 c-3 -8 -6 -5 -6 6 -1 11 2 17 5 13 3 -3 4 -12 1 -19z m3 -92 c0 -9 -13 -7 -29 3 -7 5 -10 14 -7 20 5 8 11 7 22 -3 8 -8 14 -17 14 -20z m203 -41 c-6 -17 -33 -20 -33 -4 0 5 5 7 10 4 6 -3 10 1 10 10 0 9 4 14 10 10 5 -3 7 -12 3 -20z m-80 8 c-7 -2 -19 -2 -25 0 -7 3 -2 5 12 5 14 0 19 -2 13 -5z"/> <path d="M3400 1633 c-69 -19 -126 -36 -128 -38 -3 -3 67 -267 73 -273 2 -2 267 68 273 72 7 7 -73 276 -82 275 -6 -1 -67 -17 -136 -36z m137 -35 c-3 -7 -5 -2 -5 12 0 14 2 19 5 13 2 -7 2 -19 0 -25z m-5 -69 c11 -41 20 -80 21 -88 1 -8 -23 -20 -73 -33 -41 -10 -87 -25 -102 -33 -25 -12 -26 -12 -15 6 9 14 7 34 -7 91 -10 40 -19 77 -20 82 -1 8 150 55 168 52 5 -1 18 -36 28 -77z m-155 65 c-3 -3 -12 -4 -19 -1 -8 3 -5 6 6 6 11 1 17 -2 13 -5z m-57 -19 c-7 -9 -15 -13 -17 -11 -7 7 7 26 19 26 6 0 6 -6 -2 -15z m-3 -47 c-3 -8 -6 -5 -6 6 -1 11 2 17 5 13 3 -3 4 -12 1 -19z m259 -116 c-18 -16 -18 -16 -6 6 6 13 14 21 18 18 3 -4 -2 -14 -12 -24z m-179 -58 c-3 -3 -12 -4 -19 -1 -8 3 -5 6 6 6 11 1 17 -2 13 -5z"/> <path d="M2912 1347 l-102 -102 102 -101 103 -100 100 101 101 100 -101 102 -102 102 -101 -102z m108 53 c0 -5 -7 -10 -16 -10 -8 0 -12 5 -9 10 3 6 10 10 16 10 5 0 9 -4 9 -10z m120 -155 c0 -1 -29 -31 -65 -66 l-64 -65 -66 65 -65 66 65 65 66 66 64 -65 c36 -35 65 -65 65 -66z m-204 84 c-19 -23 -45 -49 -58 -57 -13 -9 2 9 32 41 64 67 76 74 26 16z m244 -78 c0 -5 -6 -14 -14 -20 -12 -10 -13 -8 -9 8 5 21 23 30 23 12z m-315 -11 c3 -6 -1 -7 -9 -4 -18 7 -21 14 -7 14 6 0 13 -4 16 -10z m154 -142 c8 3 11 0 7 -7 -11 -18 -22 -13 -40 17 -17 26 -17 27 1 6 10 -11 25 -18 32 -16z"/> <path d="M3530 1025 c-10 -12 -10 -18 0 -30 7 -8 18 -15 25 -15 19 0 36 25 29 44 -8 20 -38 21 -54 1z"/> <path d="M4484 1025 c-8 -21 2 -45 19 -45 20 0 40 27 33 45 -7 19 -45 20 -52 0z"/> <path d="M1640 891 c-73 -22 -138 -81 -168 -150 -19 -46 -18 -145 2 -193 53 -123 183 -183 310 -143 107 34 176 128 176 240 0 101 -61 194 -154 236 -42 19 -120 24 -166 10z m160 -51 c80 -41 120 -106 120 -197 0 -64 -24 -117 -74 -160 -118 -105 -305 -45 -347 111 -27 100 33 216 131 255 43 17 128 13 170 -9z"/> <path d="M2202 881 c-23 -11 -56 -35 -72 -53 l-30 -32 0 47 c0 35 -4 47 -15 47 -13 0 -15 -44 -15 -335 0 -291 2 -335 15 -335 13 0 15 22 15 138 l1 137 21 -29 c12 -16 44 -39 72 -52 95 -44 183 -27 263 51 61 59 77 108 71 205 -6 73 -21 110 -69 158 -46 47 -84 64 -154 69 -46 3 -70 -1 -103 -16z m194 -53 c96 -64 125 -179 74 -283 -74 -148 -286 -154 -351 -11 -21 47 -25 154 -8 207 25 74 92 118 180 119 48 0 65 -5 105 -32z"/> <path d="M2701 882 c-70 -35 -96 -104 -61 -160 15 -25 41 -43 98 -68 120 -53 146 -69 161 -99 12 -24 11 -32 -3 -62 -39 -82 -186 -85 -253 -5 -17 20 -25 24 -34 15 -16 -16 12 -54 60 -81 121 -68 271 -9 271 106 0 61 -33 93 -140 138 -139 57 -171 105 -111 165 26 25 37 29 85 29 50 0 60 -4 95 -35 26 -24 42 -32 46 -24 13 19 -17 58 -60 79 -51 25 -109 26 -154 2z"/> <path d="M3145 873 c-176 -99 -181 -348 -7 -450 41 -24 57 -28 127 -28 64 0 89 5 123 23 44 24 47 28 32 52 -8 12 -11 12 -27 -1 -47 -42 -159 -52 -221 -20 -44 23 -83 63 -107 110 -28 55 -18 158 21 213 62 88 187 120 281 70 34 -18 43 -19 52 -8 9 11 4 19 -26 37 -30 19 -55 25 -118 27 -72 2 -85 0 -130 -25z"/> <path d="M4014 876 c-179 -83 -191 -351 -19 -451 89 -53 200 -42 268 26 22 21 41 39 42 39 1 0 0 -20 -3 -45 -4 -41 -3 -45 17 -45 21 0 21 2 21 245 0 243 0 245 -21 245 -20 0 -21 -4 -17 -45 3 -25 4 -45 3 -45 -1 0 -20 18 -42 39 -64 64 -160 79 -249 37z m193 -35 c26 -13 51 -34 67 -60 23 -36 26 -51 26 -131 0 -122 -26 -172 -105 -206 -144 -60 -301 67 -282 228 18 147 160 229 294 169z"/> <path d="M3537 648 c2 -212 5 -243 18 -243 14 0 16 30 18 243 2 236 2 242 -18 242 -20 0 -20 -6 -18 -242z"/> <path d="M4490 645 c0 -238 1 -245 20 -245 19 0 20 7 20 245 0 238 -1 245 -20 245 -19 0 -20 -7 -20 -245z"/> <path d="M3714 434 c-7 -29 6 -47 31 -42 28 5 41 33 26 52 -21 25 -50 20 -57 -10z"/> </g> </svg>