<?xml version="1.0" standalone="no"?>
<!DOCTYPE svg PUBLIC "-//W3C//DTD SVG 20010904//EN"
 "http://www.w3.org/TR/2001/REC-SVG-20010904/DTD/svg10.dtd">
<svg version="1.0" xmlns="http://www.w3.org/2000/svg"
 width="1200.000000pt" height="534.000000pt" viewBox="0 0 1200.000000 534.000000"
 preserveAspectRatio="xMidYMid meet">
<g transform="translate(0.000000,534.000000) scale(0.100000,-0.100000)"
fill="#06cb13" stroke="none">
<path d="M5813 4682 c-106 -107 -193 -197 -193 -199 0 -3 90 -94 199 -204
l200 -200 200 200 c111 110 201 202 201 204 0 11 -395 397 -404 396 -6 -1 -98
-89 -203 -197z m341 -69 c69 -70 126 -128 126 -130 0 -8 -251 -253 -260 -253
-15 0 -264 250 -256 258 40 47 244 249 253 251 6 0 68 -56 137 -126z"/>
<path d="M5245 4303 c-115 -34 -385 -103 -407 -103 -10 0 -21 -7 -24 -15 -4
-8 24 -124 60 -257 36 -134 66 -248 66 -254 0 -5 6 -18 13 -28 11 -14 17 -15
42 -6 40 15 410 116 458 125 21 4 41 14 44 22 3 8 -4 47 -15 86 -12 40 -33
115 -47 167 -14 52 -33 127 -44 165 -10 39 -22 82 -25 98 -8 33 -15 33 -121 0z
m54 -130 c6 -21 15 -58 20 -83 6 -25 23 -85 39 -135 17 -49 28 -93 26 -97 -3
-4 -22 -12 -42 -18 -20 -5 -95 -26 -165 -46 -70 -19 -135 -34 -144 -32 -11 2
-23 30 -38 93 -29 118 -51 194 -64 227 -6 16 -6 30 -1 33 4 3 69 21 143 40 75
19 146 39 159 44 44 18 57 13 67 -26z"/>
<path d="M6677 4323 c-4 -3 -7 -15 -7 -25 0 -11 -6 -40 -14 -66 -8 -26 -23
-81 -35 -122 -100 -357 -97 -335 -41 -344 30 -5 329 -86 492 -133 12 -4 19 3
24 23 21 91 77 303 104 394 33 116 36 139 18 144 -7 2 -96 25 -198 51 -102 26
-214 55 -249 66 -68 21 -84 23 -94 12z m135 -127 c45 -15 145 -42 213 -57 22
-5 50 -11 63 -14 26 -6 27 -24 7 -83 -8 -23 -28 -94 -44 -158 -17 -64 -32
-119 -35 -121 -10 -11 -349 82 -354 96 -2 7 7 49 21 94 14 45 33 116 43 157
14 65 28 100 40 100 2 0 23 -6 46 -14z"/>
<path d="M4951 3321 c-6 -11 -11 -26 -11 -33 0 -8 -16 -70 -35 -138 -19 -69
-42 -152 -51 -185 -9 -33 -24 -86 -34 -117 -22 -67 -20 -69 65 -87 54 -11 144
-35 388 -102 42 -12 80 -19 83 -17 3 3 13 39 24 79 20 83 66 251 104 379 13
47 23 87 21 88 -2 2 -46 14 -97 27 -51 13 -127 32 -168 44 -41 12 -95 26 -120
32 -41 9 -100 28 -142 44 -11 4 -20 0 -27 -14z m226 -146 c70 -20 145 -40 166
-46 22 -6 37 -16 37 -25 0 -8 -15 -68 -34 -133 -19 -64 -37 -134 -41 -154 -12
-60 -19 -61 -156 -23 -68 19 -144 38 -169 43 -42 8 -45 11 -44 38 1 17 9 55
18 85 9 30 26 93 37 140 28 114 26 110 43 110 8 0 72 -16 143 -35z"/>
<path d="M7050 3331 c-8 -4 -121 -36 -250 -71 -129 -34 -242 -66 -250 -70 -19
-10 -18 -12 18 -140 55 -196 102 -375 102 -392 0 -9 5 -18 11 -20 6 -2 113 24
236 59 124 34 245 65 269 69 24 3 46 10 49 14 3 4 -2 27 -11 51 -8 24 -21 69
-29 99 -7 30 -29 111 -48 180 -19 69 -38 141 -42 160 -14 74 -20 80 -55 61z
m-24 -148 c8 -33 60 -231 76 -286 6 -21 8 -40 5 -43 -2 -3 -49 -16 -103 -30
-55 -14 -129 -34 -166 -46 -37 -11 -73 -18 -80 -15 -7 2 -22 40 -32 83 -10 44
-29 118 -43 166 -14 48 -23 93 -21 99 2 6 62 26 133 44 72 19 144 38 160 44
51 16 64 13 71 -16z"/>
<path d="M5818 2688 c-109 -110 -198 -202 -198 -203 0 -1 90 -92 200 -203
l200 -200 200 199 c110 109 200 201 200 204 0 6 -395 405 -401 404 -2 0 -93
-91 -201 -201z m462 -202 c0 -6 -253 -256 -260 -256 -12 0 -255 250 -253 259
1 5 59 65 128 134 l126 126 129 -130 c72 -72 130 -132 130 -133z"/>
<path d="M7057 2062 c-51 -56 26 -144 85 -99 26 20 33 63 14 92 -20 31 -74 34
-99 7z"/>
<path d="M8960 2064 c-21 -25 -16 -75 9 -96 32 -25 57 -23 87 8 20 19 24 31
19 52 -4 15 -11 33 -17 39 -15 18 -83 16 -98 -3z"/>
<path d="M6426 1800 c-134 -24 -301 -150 -360 -273 -110 -229 -52 -493 143
-648 171 -137 414 -145 614 -21 42 27 46 48 16 80 -21 23 -24 23 -74 -14 -77
-56 -217 -84 -320 -65 -125 23 -251 118 -307 231 -106 213 -15 491 193 589
149 71 305 59 452 -36 28 -18 29 -18 48 6 27 34 24 47 -20 76 -93 62 -269 96
-385 75z"/>
<path d="M3295 1786 c-90 -22 -166 -66 -241 -141 -114 -113 -163 -247 -150
-403 21 -236 199 -425 436 -463 252 -40 518 145 570 398 16 73 8 214 -15 278
-72 203 -278 347 -493 344 -31 0 -79 -6 -107 -13z m196 -76 c187 -35 333 -200
346 -388 13 -188 -82 -349 -253 -429 -54 -26 -69 -28 -174 -28 -110 0 -119 2
-181 32 -183 90 -285 302 -235 488 39 147 137 257 271 303 94 33 142 38 226
22z"/>
<path d="M4477 1789 c-76 -18 -150 -62 -214 -126 l-63 -64 0 91 0 91 -35 -3
-36 -3 0 -670 -1 -670 39 0 38 0 -4 263 c-2 146 0 262 5 262 5 0 31 -25 57
-55 88 -100 246 -151 388 -125 181 32 330 162 388 340 29 86 29 236 1 330 -71
240 -328 394 -563 339z m258 -108 c114 -52 196 -147 231 -269 26 -88 15 -229
-23 -312 -44 -94 -100 -152 -191 -197 -73 -37 -80 -38 -181 -38 -96 0 -112 3
-169 29 -79 37 -153 114 -179 188 -14 43 -18 83 -18 208 0 186 15 238 93 314
116 115 287 145 437 77z"/>
<path d="M5445 1787 c-180 -60 -258 -225 -169 -358 39 -58 102 -99 221 -145
238 -90 303 -142 303 -239 0 -112 -105 -187 -261 -187 -64 -1 -85 4 -142 31
-59 28 -137 98 -137 123 0 4 -7 8 -16 8 -17 0 -54 -36 -54 -52 0 -5 23 -34 51
-63 95 -100 243 -151 370 -126 113 23 193 74 239 154 24 43 30 63 30 115 0 38
-7 78 -16 98 -34 72 -129 132 -326 208 -108 41 -169 81 -198 129 -72 117 62
251 232 233 77 -8 155 -49 187 -98 27 -43 53 -48 75 -17 19 27 12 45 -37 96
-79 83 -245 125 -352 90z"/>
<path d="M8113 1786 c-134 -33 -264 -137 -321 -258 -42 -89 -51 -135 -52 -244
0 -173 63 -307 194 -409 187 -145 453 -133 601 27 30 32 56 58 59 58 4 0 6
-36 6 -80 l0 -80 40 0 40 0 -2 488 -3 487 -37 3 -38 3 0 -85 c0 -47 -3 -86 -6
-86 -4 0 -24 20 -45 44 -106 121 -273 171 -436 132z m188 -76 c116 -22 214
-93 266 -192 28 -52 28 -56 28 -228 0 -168 -1 -177 -26 -230 -42 -90 -129
-161 -231 -189 -27 -8 -80 -12 -130 -9 -225 9 -388 187 -388 423 0 174 86 318
234 390 84 41 158 52 247 35z"/>
<path d="M7067 1774 c-4 -4 -7 -225 -7 -490 l0 -484 27 -6 c60 -15 58 -34 58
497 l0 484 -35 3 c-20 2 -39 0 -43 -4z"/>
<path d="M8968 1299 c-2 -264 1 -487 5 -494 7 -14 60 -15 73 -3 3 4 6 582 4
966 0 7 -15 12 -40 12 l-40 0 -2 -481z"/>
<path d="M7432 897 c-67 -72 34 -172 103 -102 30 30 32 64 4 99 -27 34 -77 36
-107 3z"/>
</g>
</svg>
